<?xml version="1.0" encoding="utf-8"?>
<svg version="1.1" id="Capa_1" x="0px" y="0px" viewBox="0 0 512 512" style="enable-background:new 0 0 512 512;" xmlns="http://www.w3.org/2000/svg">
  <g/>
  <g/>
  <g/>
  <g/>
  <g/>
  <g/>
  <g/>
  <g/>
  <g/>
  <g/>
  <g/>
  <g/>
  <g/>
  <g/>
  <g/>
  <path style="fill: rgb(216, 216, 216); stroke: rgb(0, 0, 0);" d="M 16.62 -50.342"/>
  <path style="fill: rgb(216, 216, 216); stroke: rgb(0, 0, 0);" d="M -118.211 118.196"/>
  <g transform="matrix(-1, 0, 0, 1, 508.602203, -0.432337)"/>
  <g transform="matrix(-1, 0, 0, 1, 508.602203, -0.432337)"/>
  <g transform="matrix(-1, 0, 0, 1, 508.602203, -0.432337)"/>
  <g transform="matrix(-1, 0, 0, 1, 508.602203, -0.432337)"/>
  <g transform="matrix(-1, 0, 0, 1, 508.602203, -0.432337)"/>
  <g transform="matrix(-1, 0, 0, 1, 508.602203, -0.432337)"/>
  <g transform="matrix(-1, 0, 0, 1, 508.602203, -0.432337)"/>
  <g transform="matrix(-1, 0, 0, 1, 508.602203, -0.432337)"/>
  <g transform="matrix(-1, 0, 0, 1, 508.602203, -0.432337)"/>
  <g transform="matrix(-1, 0, 0, 1, 508.602203, -0.432337)"/>
  <g transform="matrix(-1, 0, 0, 1, 508.602203, -0.432337)"/>
  <g transform="matrix(-1, 0, 0, 1, 508.602203, -0.432337)"/>
  <g transform="matrix(-1, 0, 0, 1, 508.602203, -0.432337)"/>
  <g transform="matrix(-1, 0, 0, 1, 508.602203, -0.432337)"/>
  <g transform="matrix(-1, 0, 0, 1, 508.602203, -0.432337)"/>
  <path style="stroke: rgb(0, 0, 0); stroke-width: 0px; fill: rgb(255, 255, 255);" d="M 447.904 -0.646 L 512.726 256.051 L 431.482 512.747 L 360.61 510.154 L 477.29 253.458 L 364.067 -2.373 L 447.904 -0.646 Z" transform="matrix(-1, 0, 0, -1, 809.378021, 512.965988)"/>
  <path style="fill: rgb(216, 216, 216); stroke: rgb(0, 0, 0);" d="M 491.983 -50.775" transform="matrix(-1, 0, 0, -1, 983.966003, -101.550003)"/>
  <path style="fill: rgb(216, 216, 216); stroke: rgb(0, 0, 0);" d="M 626.814 117.763" transform="matrix(-1, 0, 0, -1, 1253.628052, 235.526001)"/>
  <path style="fill: rgb(216, 216, 216); stroke: rgb(0, 0, 0);" d="M 330.359 240.062" transform="matrix(-1, 0, 0, -1, 660.718018, 480.123993)"/>
  <path style="stroke: rgb(0, 0, 0); stroke-width: 0px; fill: rgb(255, 255, 255);" d="M 167.872 511.452 L 232.694 254.755 L 151.45 -1.941 L 80.578 0.652 L 197.258 257.348 L 84.035 513.179 L 167.872 511.452 Z"/>
</svg>